<svg width="16" height="16" viewBox="0 0 16 16" fill="none" xmlns="http://www.w3.org/2000/svg">
<path fill-rule="evenodd" clip-rule="evenodd" d="M2.58333 6.33331C2.58333 5.84086 2.68032 5.35322 2.86878 4.89825C3.05723 4.44328 3.33346 4.02988 3.68167 3.68166C4.02989 3.33344 4.44329 3.05722 4.89826 2.86876C5.35323 2.68031 5.84087 2.58331 6.33333 2.58331C6.82578 2.58331 7.31342 2.68031 7.76839 2.86876C8.22336 3.05722 8.63676 3.33344 8.98498 3.68166C9.3332 4.02988 9.60942 4.44328 9.79787 4.89825C9.98633 5.35322 10.0833 5.84086 10.0833 6.33331C10.0833 7.32787 9.68824 8.2817 8.98498 8.98496C8.28171 9.68822 7.32789 10.0833 6.33333 10.0833C5.33876 10.0833 4.38494 9.68822 3.68167 8.98496C2.97841 8.2817 2.58333 7.32787 2.58333 6.33331ZM6.33333 0.083313C5.35874 0.0834158 4.39768 0.311431 3.52693 0.749146C2.65617 1.18686 1.89984 1.82214 1.31835 2.60425C0.736864 3.38636 0.346337 4.29361 0.177964 5.25354C0.00959135 6.21347 0.0680385 7.19947 0.348637 8.13279C0.629236 9.06611 1.12421 9.92087 1.79402 10.6288C2.46383 11.3367 3.28992 11.8782 4.20629 12.21C5.12266 12.5418 6.10393 12.6547 7.0717 12.5396C8.03947 12.4246 8.96693 12.0848 9.77999 11.5475L13.7825 15.5508C14.017 15.7853 14.335 15.917 14.6667 15.917C14.9983 15.917 15.3163 15.7853 15.5508 15.5508C15.7853 15.3163 15.9171 14.9983 15.9171 14.6666C15.9171 14.335 15.7853 14.017 15.5508 13.7825L11.5475 9.77998C12.1702 8.83798 12.5261 7.74487 12.5773 6.61681C12.6285 5.48874 12.3732 4.36788 11.8384 3.37332C11.3036 2.37877 10.5093 1.54768 9.54002 0.968387C8.5707 0.389094 7.46255 0.0832343 6.33333 0.083313Z" fill="white"/>
</svg>
