<svg version="1.1" id="Layer_1" xmlns="http://www.w3.org/2000/svg" xmlns:xlink="http://www.w3.org/1999/xlink" x="0px" y="0px" viewBox="0 0 267 519" class="hero-deposit-svg" xml:space="preserve">
                        <style type="text/css">
                            .st0{fill:#CECCCF;}
                            .st1{fill:#F5F1F2;}
                            .st2{fill:#28283A;}
                            .st3{font-family:'Arial-BoldMT';}
                            .st4{font-size:14px;}
                            .st5{font-size:9px;}
                            .st6{font-family:'ArialMT';}
                            .st7{font-size:11px;}
                            .st8{fill:#217C3F;}
                            .st9{font-size:12px;}
                            .st10{fill:none;stroke:#000000;stroke-width:0.75;stroke-miterlimit:10;}
                        </style>
    <rect y="43" class="st0" width="267" height="18"></rect>
    <rect y="125" class="st0" width="267" height="18"></rect>
    <rect y="207" class="st0" width="267" height="18"></rect>
    <rect y="290" class="st0" width="267" height="18"></rect>
    <rect y="372" class="st0" width="267" height="18"></rect>
    <rect y="454" class="st0" width="267" height="18"></rect>
    <rect class="st1" width="267" height="33"></rect>
    <text transform="matrix(1 0 0 1 7.1064 20.1274)" class="st2 st3 st4"> {{title}} </text>
    <text transform="matrix(1 0 0 1 5.1064 55.1274)" class="st2 st3 st5">19 Junij</text>
    <text transform="matrix(1 0 0 1 23.1064 111.1274)" class="st2 st6 st7">Obresti</text>
    <text transform="matrix(1 0 0 1 188.1064 83.1274)" class="st8 st6 st9">+€25,493.30</text>
    <text transform="matrix(1 0 0 1 188.1064 101.1274)" class="st2 st6 st9">€489,796.13</text>
    <text transform="matrix(1 0 0 1 23.1064 84.5942)"><tspan x="0" y="0" class="st2 st6 st4">Polog od </tspan><tspan x="0" y="13" class="st2 st6 st4">Bitcoin Boozter</tspan></text>
    <text transform="matrix(1 0 0 1 5.1064 138.1274)" class="st2 st3 st5">12 Junij</text>
    <text transform="matrix(1 0 0 1 5.1064 220.1274)" class="st2 st3 st5">05 Junij</text>
    <text transform="matrix(1 0 0 1 5.1064 302.1274)" class="st2 st3 st5">29 Maj</text>
    <text transform="matrix(1 0 0 1 5.1064 384.1274)" class="st2 st3 st5">22 Maj</text>
    <text transform="matrix(1 0 0 1 5.1064 467.1274)" class="st2 st3 st5">15 Maj</text>
    <polyline class="st10" points="6,88.3 11,93.6 16,88.3 "></polyline>
    <text transform="matrix(1 0 0 1 23.1064 276.1274)" class="st2 st6 st7">Obresti</text>
    <text transform="matrix(1 0 0 1 188.1064 248.1274)" class="st8 st6 st9">+€19,583.39</text>
    <text transform="matrix(1 0 0 1 188.1064 266.1274)" class="st2 st6 st9">€440,809.49</text>
    <text transform="matrix(1 0 0 1 23.1064 249.5942)"><tspan x="0" y="0" class="st2 st6 st4">Polog od </tspan><tspan x="0" y="13" class="st2 st6 st4">Bitcoin Boozter</tspan></text>
    <polyline class="st10" points="6,253.3 11,258.6 16,253.3 "></polyline>
    <text transform="matrix(1 0 0 1 23.1064 357.1274)" class="st2 st6 st7">Obresti</text>
    <text transform="matrix(1 0 0 1 188.1064 329.1274)" class="st8 st6 st9">+€10,394.43</text>
    <text transform="matrix(1 0 0 1 188.1064 347.1274)" class="st2 st6 st9">€421,226.10</text>
    <text transform="matrix(1 0 0 1 23.1064 330.5942)"><tspan x="0" y="0" class="st2 st6 st4">Polog od </tspan><tspan x="0" y="13" class="st2 st6 st4">Bitcoin Boozter</tspan></text>
    <polyline class="st10" points="6,334.3 11,339.6 16,334.3 "></polyline>
    <text transform="matrix(1 0 0 1 23.1064 440.1274)" class="st2 st6 st7">Obresti</text>
    <text transform="matrix(1 0 0 1 188.1064 412.1274)" class="st8 st6 st9">+€17,393.33</text>
    <text transform="matrix(1 0 0 1 188.1064 430.1274)" class="st2 st6 st9">€410,831.67</text>
    <text transform="matrix(1 0 0 1 23.1064 413.5942)"><tspan x="0" y="0" class="st2 st6 st4">Polog od </tspan><tspan x="0" y="13" class="st2 st6 st4">Bitcoin Boozter</tspan></text>
    <text transform="matrix(1 0 0 1 188.1064 494.1274)" class="st8 st6 st9">+€11,394.22</text>
    <text transform="matrix(1 0 0 1 23.1064 495.5942)"><tspan x="0" y="0" class="st2 st6 st4">Polog od </tspan><tspan x="0" y="13" class="st2 st6 st4">Bitcoin Boozter</tspan></text>
    <polyline class="st10" points="6,417.3 11,422.6 16,417.3 "></polyline>
    <text transform="matrix(1 0 0 1 23.1064 193.1274)" class="st2 st6 st7">Prenos</text>
    <text transform="matrix(1 0 0 1 188.1064 165.1274)" class="st8 st6 st9">+€23,493.34</text>
    <text transform="matrix(1 0 0 1 188.1064 183.1274)" class="st2 st6 st9">€464,302.83</text>
    <text transform="matrix(1 0 0 1 23.1064 166.5942)"><tspan x="0" y="0" class="st2 st6 st4">Polog od </tspan><tspan x="0" y="13" class="st2 st6 st4">Bitcoin Boozter</tspan></text>
    <polyline class="st10" points="6,170.4 11,175.7 16,170.4 "></polyline>
</svg>